<svg xmlns="http://www.w3.org/2000/svg" width="720" height="240" viewBox="0 0 720 240" role="img" aria-labelledby="title desc">
  <title id="title">Selection Brackets brand-mark concept</title>
  <desc id="desc">A selected text bracket symbol with a translation spark and Simple Translate JS wordmark.</desc>
  <defs>
    <linearGradient id="bg" x1="28" y1="28" x2="156" y2="156" gradientUnits="userSpaceOnUse">
      <stop stop-color="#2563eb"/>
      <stop offset="1" stop-color="#0891b2"/>
    </linearGradient>
    <filter id="shadow" x="-20%" y="-20%" width="140%" height="140%">
      <feDropShadow dx="0" dy="10" stdDeviation="10" flood-color="#0f172a" flood-opacity=".16"/>
    </filter>
  </defs>
  <rect width="720" height="240" rx="24" fill="#ffffff"/>
  <g transform="translate(44 28)" filter="url(#shadow)">
    <rect width="184" height="184" rx="34" fill="url(#bg)"/>
    <path d="M62 48H44v88h18M122 48h18v88h-18" fill="none" stroke="#eff6ff" stroke-width="10" stroke-linecap="round" stroke-linejoin="round"/>
    <rect x="67" y="61" width="50" height="14" rx="7" fill="#dbeafe"/>
    <rect x="67" y="88" width="44" height="14" rx="7" fill="#bfdbfe"/>
    <rect x="67" y="115" width="58" height="14" rx="7" fill="#93c5fd"/>
    <path d="M113 76l22 22-22 22" fill="none" stroke="#facc15" stroke-width="9" stroke-linecap="round" stroke-linejoin="round"/>
    <path d="M43 34l8-12 8 12 12 8-12 8-8 12-8-12-12-8 12-8Z" fill="#facc15"/>
  </g>
  <g transform="translate(268 76)">
    <text x="0" y="0" font-family="Inter, Arial, sans-serif" font-size="44" font-weight="800" fill="#0f172a">Simple Translate</text>
    <text x="0" y="48" font-family="Inter, Arial, sans-serif" font-size="28" font-weight="700" fill="#2563eb">JS</text>
    <text x="48" y="48" font-family="Inter, Arial, sans-serif" font-size="20" font-weight="600" fill="#64748b">Selection Brackets</text>
  </g>
</svg>
